<svg xmlns="http://www.w3.org/2000/svg" viewBox="0 0 48 48" width="48px" height="48px">
  <path fill="#37474F" d="M32.841,28.137c-0.521-1.246-1.366-2.301-2.432-3.166c-1.065-0.865-2.301-1.521-3.708-1.968c-1.407-0.447-2.894-0.671-4.462-0.671c-1.568,0-3.055,0.224-4.462,0.671c-1.407,0.447-2.643,1.103-3.708,1.968c-1.065,0.865-1.911,1.92-2.432,3.166c-0.521,1.246-0.782,2.568-0.782,3.968c0,1.4,0.261,2.722,0.782,3.968c0.521,1.246,1.367,2.301,2.432,3.166c1.065,0.865,2.301,1.521,3.708,1.968c1.407,0.447,2.894,0.671,4.462,0.671c1.568,0,3.055-0.224,4.462-0.671c1.407-0.447,2.643-1.103,3.708-1.968c1.065-0.865,1.911-1.92,2.432-3.166c0.521-1.246,0.782-2.568,0.782-3.968C33.623,30.705,33.362,29.383,32.841,28.137z"/>
  <path fill="#37474F" d="M24,4c-1.568,0-3.055,0.224-4.462,0.671c-1.407,0.447-2.643,1.103-3.708,1.968c-1.065,0.865-1.911,1.92-2.432,3.166c-0.521,1.246-0.782,2.568-0.782,3.968c0,1.4,0.261,2.722,0.782,3.968c0.521,1.246,1.367,2.301,2.432,3.166c1.065,0.865,2.301,1.521,3.708,1.968C20.945,22.776,22.432,23,24,23c1.568,0,3.055-0.224,4.462-0.671c1.407-0.447,2.643-1.103,3.708-1.968c1.065-0.865,1.911-1.92,2.432-3.166c0.521-1.246,0.782-2.568,0.782-3.968c0-1.4-0.261-2.722-0.782-3.968c-0.521-1.246-1.367-2.301-2.432-3.166c-1.065-0.865-2.301-1.521-3.708-1.968C27.055,4.224,25.568,4,24,4z"/>
</svg> 